<svg xmlns="http://www.w3.org/2000/svg" width="40" height="40" viewBox="0 0 40 40">
    <path fill="#9A9A9A" fill-rule="evenodd" d="M8.917 21.108c.7.047 1.385.337 1.92.872.622.622.913 1.449.875 2.263a2.99 2.99 0 0 1 2.066.878 2.99 2.99 0 0 1 .879 2.122 2.99 2.99 0 0 1 2.121.878c.596.596.889 1.38.879 2.162.192.18.388.361.587.545.41.145.793.38 1.12.708.305.304.53.658.676 1.035l.88 1.07.025.026.047.043a.93.93 0 0 0 1.296-.07c.183-.193.283-.45.283-.722 0-.272-.101-.528-.284-.72l-2.761-2.907a1 1 0 0 1-.002-1.376l.171-.181a1 1 0 0 1 1.452-.002l2.687 2.83.944.992a.937.937 0 0 0 .684.299.936.936 0 0 0 .683-.3c.183-.193.283-.45.283-.722 0-.272-.101-.528-.284-.721l-3.705-3.9a1 1 0 0 1-.001-1.376l.17-.18a1 1 0 0 1 1.452-.002l4.271 4.496a.933.933 0 0 0 1.368-.002 1.061 1.061 0 0 0-.001-1.442l-4.345-4.574a1 1 0 0 1-.002-1.376l.172-.18a1 1 0 0 1 1.451-.002l3.777 3.976a.933.933 0 0 0 1.368-.002c.182-.193.282-.45.282-.721 0-.273-.1-.53-.284-.722l-8.753-9.39-3.38.556-2.829 3.039-.096.067c-1.216.848-3.243.908-4.53-.46-1.273-1.354-1.273-3.555-.001-4.908l2.838-3.019-1.52-1.048-7.445 7.627.094.173 2.422 4.368zm10.947 14.009c-.132.237-.299.46-.5.661l-.707.707a3 3 0 0 1-5.016-1.331 3 3 0 0 1-4.105-2.79 2.99 2.99 0 0 1-2.122-.879 2.992 2.992 0 0 1-.875-2.263 3 3 0 0 1-2.066-5.12l2.121-2.122c.146-.146.302-.273.468-.382-.078-.099-.11-.171-.098-.217l-1.968-3.629-2.73-2.85a1 1 0 0 1 .004-1.388l8.519-8.796a1 1 0 0 1 1.436 0l2.434 2.51 2.873 1.94 5.656-.823 3.92-4.04a1 1 0 0 1 1.443.007l9.186 9.678a1 1 0 0 1-.033 1.41l-5.634 5.41-.208.38 1.56 1.674c.503.529.779 1.229.78 1.96 0 .729-.274 1.43-.776 1.959a2.734 2.734 0 0 1-1.755.852 2.86 2.86 0 0 1-.664 2.748 2.733 2.733 0 0 1-2.794.743 2.837 2.837 0 0 1-.76 1.664 2.737 2.737 0 0 1-3.124.617 2.834 2.834 0 0 1-.733 1.47 2.727 2.727 0 0 1-3.617.325c-.009.006-.016.006-.022 0l-.093-.085zm10.681-15.34l2.718-2.608-8.024-8.353-1.185 1.222-6.904 1.005-3.31 3.197c-.621.66-.621 1.78 0 2.44.544.58 1.502.654 2.133.256l3.113-3.343 4.937-.812.657.705 5.865 6.291zM5.132 15.291l7.444-7.626-1.069-1.102-7.408 7.65 1.033 1.078zm21.361-7.768l8.068 8.4 1.323-1.27-8.065-8.497-1.326 1.367zM9.564 23.253a1.2 1.2 0 0 0-1.697 0l-2.121 2.121a1.2 1.2 0 0 0 1.697 1.697l2.121-2.121a1.2 1.2 0 0 0 0-1.697zm2.941 3.141a1.2 1.2 0 0 0-1.697 0l-2.121 2.121a1.2 1.2 0 0 0 1.697 1.697l2.121-2.12a1.2 1.2 0 0 0 0-1.698zm3 3a1.2 1.2 0 0 0-1.697 0l-2.121 2.121a1.2 1.2 0 1 0 1.697 1.697l2.121-2.12a1.2 1.2 0 0 0 0-1.698zm2.586 3.414a1.2 1.2 0 0 0-1.697 0l-.707.707a1.2 1.2 0 1 0 1.697 1.697l.707-.707a1.2 1.2 0 0 0 0-1.697z"/>
</svg>
