<svg xmlns="http://www.w3.org/2000/svg" width="40" height="40" viewBox="0 0 40 40">
    <path fill="#9A9A9A" fill-rule="evenodd" d="M23 26.774V29a2 2 0 0 1-2 2h-2a2 2 0 0 1-2-2v-2.226l-11.2-3.82V34c0 .11.09.2.2.2h28a.2.2 0 0 0 .2-.2V22.955L23 26.775zm0-1.902l12.065-4.114a.2.2 0 0 0 .135-.19V11a.2.2 0 0 0-.2-.2H5a.2.2 0 0 0-.2.2v9.569a.2.2 0 0 0 .135.19L17 24.871V24a2 2 0 0 1 2-2h2a2 2 0 0 1 2 2v.872zM12 9V6a2 2 0 0 1 2-2h12a2 2 0 0 1 2 2v3h7a2 2 0 0 1 2 2v9.569a2 2 0 0 1-1 1.732V34a2 2 0 0 1-2 2H6a2 2 0 0 1-2-2V22.301a2 2 0 0 1-1-1.732V11a2 2 0 0 1 2-2h7zm1.8 0h12.4V6.8a1 1 0 0 0-1-1H14.8a1 1 0 0 0-1 1V9zM19 23.8a.2.2 0 0 0-.2.2v5c0 .11.09.2.2.2h2a.2.2 0 0 0 .2-.2v-5a.2.2 0 0 0-.2-.2h-2z"/>
</svg>
