<svg xmlns="http://www.w3.org/2000/svg" width="40" height="40" viewBox="0 0 40 40">
    <path fill="#9A9A9A" fill-rule="evenodd" d="M33.5 7.84v26.996C33.5 36.58 32.102 38 30.385 38H9.615C7.898 38 6.5 36.58 6.5 34.836V5.164C6.5 3.42 7.898 2 9.615 2h17.832c.833 0 1.615.33 2.203.927l2.937 2.983c.589.597.913 1.085.913 1.93zM26.96 3.8v4.84h4.77c0-.671 0-.945-.48-1.506L28.375 4.27c-.473-.544-.928-.47-1.415-.47zm4.77 31.036V10.438h-5.5a1.047 1.047 0 0 1-1.038-1.055V3.8H9.615c-.572 0-1.345.783-1.345 1.364v29.672c0 .581.773 1.364 1.345 1.364h20.77c.572 0 1.345-.783 1.345-1.364zm-10.628-6.007c-2.008 2.007-5.364 1.99-7.39-.035-2.025-2.026-2.042-5.382-.035-7.39l6.682-6.682c1.498-1.498 3.96-1.485 5.47.026 1.512 1.512 1.524 3.972.026 5.47l-5.41 5.41c-.988.989-2.554.981-3.55-.016-.998-.997-1.006-2.563-.017-3.552l4.291-4.29a.932.932 0 0 1 1.318 1.317l-4.291 4.291c-.284.284-.282.637.006.926.289.288.642.29.926.006l5.41-5.41c.792-.792.786-2.041-.017-2.844-.802-.802-2.051-.809-2.844-.016l-6.682 6.682c-1.302 1.302-1.292 3.447.025 4.764 1.317 1.317 3.462 1.327 4.764.025l5.563-5.563a.932.932 0 1 1 1.318 1.317l-5.563 5.564z"/>
</svg>
