<svg xmlns="http://www.w3.org/2000/svg" width="24" height="24" viewBox="0 0 24 24">
    <path fill="#FFF" fill-rule="evenodd" d="M4 8V3.758C4 2.788 4.79 2 5.76 2H15.82c.47 0 .911.183 1.243.515l1.657 1.657c.332.332.515.774.515 1.243V13h1.378a1 1 0 0 1 .948 1.316l-2.333 7a1 1 0 0 1-.949.684H3a1 1 0 0 1-1-1V9a1 1 0 0 1 1-1h1zm0 1h-.973v9.919l.974-2.921V9zm-.613 12H18.28l2.334-7H5.72l-2.334 7zm14.676-8V6.687h-2.93a.586.586 0 0 1-.585-.585v-2.93h-8.79a.587.587 0 0 0-.585.586v9.406A.998.998 0 0 1 5.72 13h12.342zM15.72 3.172v2.344h2.344c0-.125.015-.33-.171-.515l-1.658-1.658c-.19-.19-.404-.171-.515-.171zm.07 4.887a.586.586 0 0 1 0 1.172H7.586a.586.586 0 0 1 0-1.172h8.203zm-2.344 2.344a.586.586 0 0 1 0 1.172h-5.86a.586.586 0 0 1 0-1.172h5.86z"/>
</svg>
