<svg xmlns="http://www.w3.org/2000/svg" width="24" height="24" viewBox="0 0 24 24">
    <path fill="#9A9A9A" fill-rule="evenodd" d="M20.865 10.482h-.476V7.625A2.121 2.121 0 0 0 18.27 5.51h-.434l.004-1.061c0-.787-.64-1.426-1.426-1.426H3.734c-.947 0-1.722.762-1.734 1.709V18.2a2 2 0 0 0 2 2l14.39-.002a2 2 0 0 0 2-1.998l.003-3.001h.476c.615 0 1.115-.5 1.115-1.115v-2.488a1.122 1.122 0 0 0-1.12-1.114zM3.934 4.206h12.28c.242 0 .443.197.443.439l-.005.865H3.934c-.414 0-.75-.236-.75-.65 0-.414.336-.654.75-.654zM18.206 19H4.18a1 1 0 0 1-1-1V6.522c.229.11.483.172.754.172h14.14c.624 0 1.132.508 1.132 1.131v2.657h-3.157c-.615 0-1.115.5-1.115 1.114v2.488c0 .615.5 1.115 1.115 1.115h3.157V18a1 1 0 0 1-1 1zm-2.086-4.916v-2.488h4.676v2.488H16.12z"/>
</svg>
