<svg xmlns="http://www.w3.org/2000/svg" width="24" height="24" viewBox="0 0 24 24">
    <path fill="#9A9A9A" fill-rule="evenodd" d="M21 9.694v10.548c0 .969-.806 1.758-1.8 1.758H4.8c-.991 0-1.8-.787-1.8-1.758V9.696v-.002c0-.145.057-.294.17-.407l.006-.006L5.4 7.109V2.586C5.4 2.262 5.669 2 6 2h12c.331 0 .6.262.6.586v4.523l2.224 2.172c.113.11.176.262.176.413zm-2.4-.928v1.858l.951-.929-.951-.929zm-12-1.414v4.444l3.249 3.173h4.302l3.249-3.173V3.172H6.6v4.18zM5.4 8.766l-.951.93.951.928V8.766zM4.2 20l4.551-4.444L4.2 11.11V20zm.849.83H18.95l-4.8-4.688H9.85l-4.8 4.687zm14.751-.83v-8.89l-4.551 4.446 4.551 4.444zM14.821 7.273c.229.229.229.6 0 .829l-2.344 2.344a.584.584 0 0 1-.828 0l-1.172-1.172a.586.586 0 1 1 .828-.829l.758.758 1.93-1.93a.586.586 0 0 1 .828 0z"/>
</svg>
