<svg xmlns="http://www.w3.org/2000/svg" width="24" height="24" viewBox="0 0 24 24">
    <path fill="#FFF" fill-rule="evenodd" d="M18.55 12.108l2.699-2.51a1 1 0 0 0 .033-1.433l-4.327-4.417a1 1 0 0 0-1.42-.008l-1.81 1.807-3.071.433L9.093 4.96 8.088 3.955a1 1 0 0 0-1.414 0L2.702 7.93A1 1 0 0 0 2.7 9.34l1.148 1.162 1.08 1.888a1.71 1.71 0 0 0-.224.188l-.85.85a1.68 1.68 0 0 0-.497 1.194c0 .452.174.877.493 1.196.255.255.576.418.925.475l-.001.034a1.682 1.682 0 0 0 1.565 1.686 1.683 1.683 0 0 0 1.684 1.568c.163 0 .326-.023.483-.07.083.232.217.444.395.623.32.32.744.496 1.195.497a1.68 1.68 0 0 0 1.196-.494l.478-.477c.027-.027.053-.056.079-.085l.123.11c.327.319.754.479 1.18.478a1.686 1.686 0 0 0 1.595-1.126 1.686 1.686 0 0 0 2.101-1.178 1.686 1.686 0 0 0 1.953-1.85 1.68 1.68 0 0 0 1.307-1.648 1.68 1.68 0 0 0-.497-1.194l-1.06-1.058zm-2.308-7.412l4.076 4.162-.799.742-4.046-4.131.769-.773zm-5.013 2.37l3.044-.409.366-.363 4.03 4.114-.946.866-3.212-3.297-2.792.435-1.693 1.724c-.257.14-.663.133-.902-.108a.597.597 0 0 1 0-.839l2.105-2.122zm-6.962 2.19l-.613-.62 3.727-3.729.673.672-3.787 3.678zm.78 5.884a.514.514 0 0 1-.518-.517c0-.139.054-.268.152-.366l.851-.85a.514.514 0 0 1 .731.002.514.514 0 0 1 0 .73l-.852.85a.514.514 0 0 1-.365.151zm1.05 1.553a.514.514 0 0 1 0-.731l.994-.991a.514.514 0 0 1 .732 0 .518.518 0 0 1-.001.732l-.993.99a.518.518 0 0 1-.732 0zm3.284.573l-.993.99a.518.518 0 0 1-.73-.731l.992-.992a.518.518 0 0 1 .73.733zm1.56 1.563l-.479.476a.514.514 0 0 1-.731 0 .518.518 0 0 1 0-.732l.479-.477a.516.516 0 0 1 .731.001.518.518 0 0 1 0 .732zm7.841-4.1a.519.519 0 0 1-.732 0l-1.997-1.992a.587.587 0 1 0-.829.83l2.262 2.257a.518.518 0 0 1-.732.733l-2.261-2.256a.587.587 0 1 0-.829.83l1.919 1.915a.515.515 0 0 1 0 .732.515.515 0 0 1-.732.001l-.505-.504-1.413-1.41a.587.587 0 1 0-.829.83l1.413 1.41a.514.514 0 0 1 0 .733.515.515 0 0 1-.732 0l-.523-.462a1.683 1.683 0 0 0-1.56-1.598 1.678 1.678 0 0 0-.49-1.072 1.677 1.677 0 0 0-1.07-.492 1.683 1.683 0 0 0-1.559-1.562 1.678 1.678 0 0 0-.489-1.072 1.677 1.677 0 0 0-.982-.482L5.01 10.17l3.987-3.873.813.533-1.52 1.532a1.774 1.774 0 0 0 .001 2.491c.69.695 1.775.665 2.426.234l.052-.034 1.515-1.543 1.81-.282 4.688 4.767a.515.515 0 0 1 0 .733z"/>
</svg>
