<svg xmlns="http://www.w3.org/2000/svg" width="24" height="24" viewBox="0 0 24 24">
    <path fill="#9A9A9A" fill-rule="evenodd" d="M19.276 11.803h-2.009V9.12a3.79 3.79 0 0 0 1.902-3.278c0-.784-.239-1.536-.69-2.175a3.798 3.798 0 0 0-1.768-1.366.59.59 0 0 0-.8.552v1.69l-.55.339-.551-.338V2.854a.59.59 0 0 0-.8-.553 3.799 3.799 0 0 0-1.766 1.367 3.748 3.748 0 0 0-.691 2.175c0 1.374.746 2.629 1.932 3.296v.79h-2.148a1 1 0 0 0-.624.218l-2.621 2.096a1 1 0 0 1-.625.22h-.062a.937.937 0 0 0-.938-.938H4a1 1 0 0 0-1 1V21a1 1 0 0 0 1 1h2.405a1 1 0 0 0 1-1v-.112l1.931 1a1 1 0 0 0 .46.112h8.276v-.032a1.72 1.72 0 0 0 1.392-1.683c0-.303-.08-.587-.219-.835a1.712 1.712 0 0 0 .531-2.273 1.71 1.71 0 0 0 .736-1.404c0-.314-.086-.608-.235-.861A1.71 1.71 0 0 0 21 13.517c0-.945-.773-1.714-1.724-1.714zm-6.544-5.96c0-.762.34-1.476.898-1.965v.762a1 1 0 0 0 .477.852l.73.448a1 1 0 0 0 1.047 0l.73-.448a1 1 0 0 0 .477-.852v-.762c.558.489.898 1.203.898 1.965 0 1.028-.61 1.964-1.553 2.385l-.348.156v3.419h-1.423v-3.41l-.354-.153a2.615 2.615 0 0 1-1.579-2.397zM6.225 20.827H4.18v-8.129h2.045v8.129zm3.4-.112l-2.22-1.15v-5.93h.478a1 1 0 0 0 .624-.219l2.621-2.095a1 1 0 0 1 .625-.22h1.716v.875a1 1 0 0 0 1 1h4.807c.3 0 .544.243.544.541a.544.544 0 0 1-.544.542h-2.85a.587.587 0 0 0 0 1.173h2.362c.3 0 .544.243.544.541a.543.543 0 0 1-.544.542h-2.869a.587.587 0 1 0 0 1.173h2.362c.3 0 .545.243.545.542a.543.543 0 0 1-.545.54h-2.903a.587.587 0 1 0 0 1.173l2.363.001c.3 0 .544.243.544.542a.543.543 0 0 1-.544.54h-7.656a1 1 0 0 1-.46-.111z"/>
</svg>
