<svg xmlns="http://www.w3.org/2000/svg" width="24" height="24" viewBox="0 0 24 24">
    <path fill="#9A9A9A" fill-rule="evenodd" d="M17.144 14a.6.6 0 0 1 .6.6v2.8h2.8a.6.6 0 0 1 0 1.2h-2.8v2.8a.6.6 0 0 1-1.2 0v-2.8h-2.8a.6.6 0 1 1 0-1.2h2.8v-2.8a.6.6 0 0 1 .6-.6zm-6-2a5 5 0 1 1 0-10 5 5 0 0 1 0 10zm0-1.2a3.8 3.8 0 1 0 0-7.6 3.8 3.8 0 0 0 0 7.6zm-.027 3.407c-4.843-.218-7.395 1.922-7.839 6.593h9.266a.6.6 0 0 1 0 1.2H2l.033-.632c.305-5.764 3.42-8.617 9.138-8.36 1.271.057 2.329.142 3.172.254a.566.566 0 0 1 .479.68.648.648 0 0 1-.716.506c-.86-.11-1.856-.19-2.989-.241z"/>
</svg>
