<svg xmlns="http://www.w3.org/2000/svg" width="24" height="24" viewBox="0 0 24 24">
    <path fill="#9A9A9A" fill-rule="evenodd" d="M14.215 20.862a1 1 0 0 1-1 1.026h-2.43a1 1 0 0 1-1-1.026c.035-1.376-.042-2.14-.231-2.294a7.047 7.047 0 0 1-2.02-1.163c-.237-.076-.934.24-2.092.95A1 1 0 0 1 4.054 18l-1.215-2.104a1 1 0 0 1 .388-1.379c1.172-.637 1.794-1.079 1.865-1.324a6.998 6.998 0 0 1-.043-2.103c.033-.249-.602-.744-1.904-1.485a1 1 0 0 1-.372-1.369l1.346-2.33a1.001 1.001 0 0 1 1.371-.363c1.293.757 2.04 1.06 2.238.906.245-.188.502-.358.767-.51.265-.154.54-.29.826-.409.231-.096.343-.893.334-2.392a1 1 0 0 1 1-1.006h2.69a1.001 1.001 0 0 1 1 1.006c-.009 1.499.103 2.296.334 2.392.286.118.561.255.826.408.265.153.522.323.767.511.199.153.945-.15 2.238-.906a1.002 1.002 0 0 1 1.371.363l1.346 2.33a1.001 1.001 0 0 1-.372 1.369c-1.302.741-1.937 1.236-1.904 1.485a6.998 6.998 0 0 1-.043 2.103c.071.245.693.687 1.865 1.324a1 1 0 0 1 .388 1.379L19.946 18a1 1 0 0 1-1.388.353c-1.158-.708-1.855-1.025-2.092-.95a7.048 7.048 0 0 1-2.02 1.164c-.19.154-.266.918-.231 2.294zm-.524-3.226l.153-.124.183-.068a5.847 5.847 0 0 0 1.676-.966l.178-.147.22-.07c.725-.23 1.438.072 2.908.963l1.01-1.75c-1.436-.79-2.063-1.257-2.264-1.945l-.077-.266.047-.274c.1-.575.112-1.163.036-1.742-.133-1.013.478-1.524 2.326-2.584l-1.145-1.982c-1.842 1.07-2.59 1.344-3.4.722a5.79 5.79 0 0 0-.639-.425 5.773 5.773 0 0 0-.683-.338c-.945-.392-1.08-1.176-1.075-3.307h-2.29c.006 2.13-.13 2.915-1.075 3.307a5.79 5.79 0 0 0-.687.34c-.22.127-.432.268-.634.423-.812.622-1.56.348-3.401-.722L3.913 8.663c1.848 1.06 2.459 1.57 2.326 2.584a5.798 5.798 0 0 0 .036 1.742l.047.274-.077.266c-.2.688-.828 1.155-2.265 1.945l1.01 1.75c1.47-.89 2.184-1.194 2.909-.963l.22.07.178.147a5.848 5.848 0 0 0 1.676.966l.183.068.153.124c.621.503.719 1.265.68 3.052h2.021c-.038-1.787.06-2.55.681-3.052zM12 15.2a3.2 3.2 0 1 1 0-6.4 3.2 3.2 0 0 1 0 6.4zm0-1.2a2 2 0 1 0 0-4 2 2 0 0 0 0 4z"/>
</svg>
