<svg xmlns="http://www.w3.org/2000/svg" width="24" height="24" viewBox="0 0 24 24">
    <path fill="#FFF" fill-rule="evenodd" d="M22.484 8.294a1.757 1.757 0 0 1 0 2.486l-4.249 4.252v5.21A1.76 1.76 0 0 1 16.477 22H4.76A1.76 1.76 0 0 1 3 20.242V3.758C3 2.788 3.789 2 4.759 2H14.82c.47 0 .911.183 1.243.515l1.657 1.657c.332.332.515.774.515 1.243v4.643l1.763-1.764a1.76 1.76 0 0 1 2.486 0zm-7.765-5.122v2.344h2.344c0-.125.015-.33-.171-.515l-1.658-1.658c-.19-.19-.404-.171-.515-.171zm2.344 17.07v-4.037l-.07.07a.585.585 0 0 1-.23.142l-2.486.829a.586.586 0 0 1-.741-.741l.829-2.486a.586.586 0 0 1 .141-.23l.828-.827 1.73-1.73V6.687h-2.93a.586.586 0 0 1-.586-.586v-2.93h-8.79a.587.587 0 0 0-.585.586v16.484c0 .323.262.586.586.586h11.718a.587.587 0 0 0 .586-.586zm-1.314-6.038l-.316.317-.415 1.243 1.243-.415.317-.316-.829-.829zm1.657 0l2.817-2.819-.829-.829-2.816 2.82.828.828zm4.25-4.253a.586.586 0 1 0-.83-.828l-.603.604.828.829.604-.605zM14.133 7.86a.586.586 0 0 1 0 1.172H5.93a.586.586 0 0 1 0-1.172h8.204zm-2.344 2.344a.586.586 0 0 1 0 1.172H5.93a.586.586 0 0 1 0-1.172h5.86zm0 2.344a.586.586 0 0 1 0 1.172H5.93a.586.586 0 0 1 0-1.172h5.86zm0 2.344a.586.586 0 0 1 0 1.171H5.93a.586.586 0 0 1 0-1.171h5.86zm2.344 3.593a.586.586 0 0 1 0 1.172h-3.516a.586.586 0 0 1 0-1.172h3.516z"/>
</svg>
