<svg xmlns="http://www.w3.org/2000/svg" width="40" height="40" viewBox="0 0 40 40">
    <path fill="#9A9A9A" fill-rule="evenodd" d="M14.38 33.758C8.585 34.019 2 33.061 2 30.884 2 25.314 6.701 20.8 12.5 20.8c2.482 0 4.763.827 6.56 2.21A11.945 11.945 0 0 1 26 20.8c6.627 0 12 5.373 12 12 0 4.282-20.554 4.602-23.62.958zm6.038-9.497c-.505.331-.979.706-1.417 1.119a10.172 10.172 0 0 0-3.2 7.266c.048.045.121.104.223.17.343.227.861.454 1.527.66.202.064.418.125.647.184 2.025.52 4.849.81 7.802.81 2.953 0 5.777-.29 7.802-.81.981-.253 1.727-.548 2.174-.843.102-.067.175-.126.223-.171C36.116 27.084 31.582 22.6 26 22.6c-2.06 0-3.978.61-5.582 1.661zm-2.783-.065A8.948 8.948 0 0 0 12.5 22.6c-4.72 0-8.537 3.571-8.695 7.999.018.013.039.026.062.04.37.236 1.005.477 1.846.684C7.47 31.757 9.928 32 12.5 32c.516 0 1.027-.01 1.528-.029a11.964 11.964 0 0 1 3.607-7.775zm2.19-13.758a6.28 6.28 0 0 0 .157 2.061 6.2 6.2 0 1 0-.157-2.061zm-.615 4.795a7 7 0 1 1-.569-7.378A8.002 8.002 0 0 1 34 11a8 8 0 0 1-14.79 4.233zm-1.2-4.632a5.2 5.2 0 1 0 .154 2.016 8.036 8.036 0 0 1-.154-2.016z"/>
</svg>
