<svg xmlns="http://www.w3.org/2000/svg" width="40" height="40" viewBox="0 0 40 40">
    <path fill="#9A9A9A" fill-rule="evenodd" d="M30.5 24.249v10.587C30.5 36.58 29.102 38 27.385 38H7.615C5.898 38 4.5 36.58 4.5 34.836V5.164C4.5 3.42 5.898 2 7.615 2h16.832c.833 0 1.615.33 2.203.927l2.937 2.983c.589.597.913 1.085.913 1.93v7.923l2.642-2.642a3 3 0 0 1 4.243 4.243L30.5 24.249zm-1.77-6.716v-7.096h-5.5a1.047 1.047 0 0 1-1.038-1.054V3.8H7.615c-.572 0-1.345.783-1.345 1.364v29.672c0 .581.773 1.364 1.345 1.364h19.77c.572 0 1.345-.783 1.345-1.364v-8.817l-2.366 2.366a1 1 0 0 1-.707.293h-2.829a1 1 0 0 1-1-1v-2.829a1 1 0 0 1 .293-.707l6.609-6.609zM23.96 3.8v4.84h4.77c0-.671 0-.945-.48-1.506L25.375 4.27c-.473-.544-.928-.47-1.415-.47zM9.9 14h14.2a.9.9 0 1 1 0 1.8H9.9a.9.9 0 1 1 0-1.8zm0 4h9.2a.9.9 0 1 1 0 1.8H9.9a.9.9 0 1 1 0-1.8zm0 4h9.2a.9.9 0 1 1 0 1.8H9.9a.9.9 0 1 1 0-1.8zm0 4h9.2a.9.9 0 1 1 0 1.8H9.9a.9.9 0 1 1 0-1.8zm9 5h6.2a.9.9 0 1 1 0 1.8h-6.2a.9.9 0 1 1 0-1.8zm15.798-13.495l1.414-1.414a1.2 1.2 0 1 0-1.697-1.697L33 15.808l1.697 1.697zm-1.273 1.273l-1.697-1.697-8.1 8.1v1.697h1.697l8.1-8.1z"/>
</svg>
